<svg xmlns="http://www.w3.org/2000/svg" width="217" height="75" viewBox="0 0 217 75"><defs><style>.a{fill:#fff;}</style></defs><g transform="translate(-381 -26)"><path class="a" d="M47.162,21.807q.259,0,.259.517t-.259.517c-1.323,0-4.235-.029-4.983-.086l-4.66-.086-4.747.086c-.748.057-3.66.086-4.983.086q-.259,0-.259-.517t.259-.517a24.492,24.492,0,0,0,5.328-.474,2.594,2.594,0,0,0,1.51-1.68,13.431,13.431,0,0,0,.388-3.791V1.905q0-5.083-1.942-7.5T27.076-8a16.738,16.738,0,0,0-6.615,1.422A17.684,17.684,0,0,0,15.5-2.661V15.863a24.468,24.468,0,0,0,.388,3.791s.762,1.364,1.51,1.68a24.492,24.492,0,0,0,5.328.474q.259,0,.259.517t-.259.517c-1.323,0-4.235-.029-4.983-.086l-4.66-.086-4.747.086c-.748.057-3.66.086-4.983.086q-.259,0-.259-.517t.259-.517a24.492,24.492,0,0,0,5.328-.474,2.594,2.594,0,0,0,1.51-1.68,13.431,13.431,0,0,0,.388-3.791V-1.2a9.5,9.5,0,0,0-.69-4.222A2.428,2.428,0,0,0,7.559-6.71c-.921,0-6.226,4.177-8.413,5.038h-.173A.483.483,0,0,1-1.5-2.06a.411.411,0,0,1,.216-.56L12.479-11.1,13-11.19q.777,0,1.64,1.982A12.822,12.822,0,0,1,15.5-4.125a25.066,25.066,0,0,1,6.516-5.6,18.39,18.39,0,0,1,7.909-1.809q4.833,0,7.422,2.671t2.589,7.84V15.863a13.431,13.431,0,0,0,.388,3.791,2.594,2.594,0,0,0,1.51,1.68A24.492,24.492,0,0,0,47.162,21.807Zm40.156-5.492a.421.421,0,0,1,.432.388.455.455,0,0,1-.259.56L76.725,23.358a1.534,1.534,0,0,1-.69.172q-1.122,0-1.985-1.508a10.379,10.379,0,0,1-1.122-4.092c-8.368,3.848-9.633,4.509-10.727,4.911a9.921,9.921,0,0,1-3.452.6,6.92,6.92,0,0,1-4.962-1.68A5.627,5.627,0,0,1,52.018,17.5a5.883,5.883,0,0,1,2.071-4.48A20.9,20.9,0,0,1,60.907,9.4L72.841,5.869V.01q0-9.649-5.437-9.649c-1.956,0-4.658.646-5.665,1.939s-2.9,3.99-3.249,5.656A6.179,6.179,0,0,1,57.541.5a2.638,2.638,0,0,1-2.33.991A2.772,2.772,0,0,1,53.1.712,2.55,2.55,0,0,1,52.363-1.1c0-1.378,2.113-3.976,3.9-5.354A24.072,24.072,0,0,1,62.645-9.9a26.109,26.109,0,0,1,7.866-1.378,6.476,6.476,0,0,1,5.351,2.24q1.812,2.24,1.812,6.462V13.536a16.948,16.948,0,0,0,.777,4.394,4.8,4.8,0,0,0,2.589,1.378c1.093,0,4.379-2.246,6.1-2.993Zm-14.476.408V7.075l-10.468,3.1a8.813,8.813,0,0,0-3.5,2.2A4.4,4.4,0,0,0,57.8,15.346a4.9,4.9,0,0,0,1.338,3.489,4.579,4.579,0,0,0,3.5,1.422C63.783,20.257,65.164,19.8,72.841,16.724Zm40.341-29.133a6.949,6.949,0,0,1,3.625,1.034,2.952,2.952,0,0,1,1.726,2.5,2.655,2.655,0,0,1-.734,1.9,2.772,2.772,0,0,1-2.114.775,2.788,2.788,0,0,1-1.338-.3,10.012,10.012,0,0,1-1.338-.9,6.933,6.933,0,0,0-1.467-1.034,3.633,3.633,0,0,0-1.64-.345,4,4,0,0,0-2.373.948,44.5,44.5,0,0,0-6.368,5.268V15.863a8.389,8.389,0,0,0,.647,3.791,3.6,3.6,0,0,0,2.373,1.68,43.275,43.275,0,0,0,7.227.474q.345,0,.345.517t-.345.517c-1.841,0-5.184-.029-6.278-.086l-6.386-.086L94,22.755c-.748.057-3.66.086-4.983.086q-.259,0-.259-.517t.259-.517a24.492,24.492,0,0,0,5.328-.474,2.594,2.594,0,0,0,1.51-1.68,13.431,13.431,0,0,0,.388-3.791V-1.2a9.5,9.5,0,0,0-.69-4.222,2.428,2.428,0,0,0-2.33-1.292C92.3-6.71,87-2.533,84.809-1.672h-.173a.483.483,0,0,1-.475-.388.411.411,0,0,1,.216-.56L98.141-11.1l.518-.086q.777,0,1.64,1.982a12.822,12.822,0,0,1,.863,5.083v.086a52.564,52.564,0,0,1,8.051-6.862A6.814,6.814,0,0,1,113.182-12.409Zm19.448-5.77a3.9,3.9,0,0,1-2.8-.948,3.518,3.518,0,0,1-.992-2.671,3.518,3.518,0,0,1,.992-2.671,3.9,3.9,0,0,1,2.8-.948,3.621,3.621,0,0,1,2.675.948,3.608,3.608,0,0,1,.949,2.671,3.608,3.608,0,0,1-.949,2.671A3.621,3.621,0,0,1,132.63-18.179Zm-9.069,41.02q-.173,0-.173-.517t.173-.517a25.111,25.111,0,0,0,5.371-.474,2.723,2.723,0,0,0,1.6-1.723,12.214,12.214,0,0,0,.432-3.748V-.248a11.3,11.3,0,0,0-.647-4.48,2.25,2.25,0,0,0-2.2-1.378c-1.036,0-6.082,4.148-7.636,4.952h-.086q-.345,0-.518-.431t.086-.6L134.93-11.1l.345-.086a.75.75,0,0,1,.432.215.616.616,0,0,1,.259.474q0,.6-.086,3.446t-.086,6.72v16.2a12.153,12.153,0,0,0,.432,3.791,2.732,2.732,0,0,0,1.553,1.68,24.492,24.492,0,0,0,5.328.474q.259,0,.259.517t-.259.517c-1.323,0-4.264-.029-5.069-.086l-4.66-.086-4.66.086C127.911,22.813,124.942,22.841,123.561,22.841Zm67.9-1.034q.259,0,.259.517t-.259.517c-1.323,0-4.235-.029-4.983-.086l-4.66-.086-4.747.086c-.748.057-3.66.086-4.983.086q-.259,0-.259-.517t.259-.517a24.492,24.492,0,0,0,5.328-.474,2.594,2.594,0,0,0,1.51-1.68,13.432,13.432,0,0,0,.388-3.791V1.905q0-5.083-1.942-7.5t-6-2.412a16.738,16.738,0,0,0-6.615,1.422,17.684,17.684,0,0,0-4.962,3.92V15.863a13.43,13.43,0,0,0,.388,3.791,2.594,2.594,0,0,0,1.51,1.68,24.492,24.492,0,0,0,5.328.474q.259,0,.259.517t-.259.517c-1.323,0-4.235-.029-4.983-.086l-4.66-.086-4.747.086c-.748.057-3.66.086-4.983.086q-.259,0-.259-.517t.259-.517a24.492,24.492,0,0,0,5.328-.474,2.594,2.594,0,0,0,1.51-1.68,13.43,13.43,0,0,0,.388-3.791V-1.2a9.5,9.5,0,0,0-.69-4.222,2.428,2.428,0,0,0-2.33-1.292c-.921,0-6.226,4.177-8.413,5.038h-.173a.483.483,0,0,1-.475-.388.411.411,0,0,1,.216-.56L156.777-11.1l.518-.086q.777,0,1.64,1.982a12.823,12.823,0,0,1,.863,5.083,25.067,25.067,0,0,1,6.516-5.6,18.39,18.39,0,0,1,7.909-1.809q4.833,0,7.422,2.671t2.589,7.84V15.863a13.431,13.431,0,0,0,.388,3.791,2.594,2.594,0,0,0,1.51,1.68A24.492,24.492,0,0,0,191.461,21.807Z" transform="translate(382.536 51.416)"/><path class="a" d="M3.747-9.54H.06v-.96H8.542v.96H4.856V0H3.747ZM12.484.075A4.094,4.094,0,0,1,10.43-.443,3.772,3.772,0,0,1,8.992-1.875a4.087,4.087,0,0,1-.525-2.07,4.087,4.087,0,0,1,.525-2.07A3.719,3.719,0,0,1,10.43-7.44a4.141,4.141,0,0,1,2.053-.51,4.141,4.141,0,0,1,2.053.51,3.667,3.667,0,0,1,1.431,1.425,4.134,4.134,0,0,1,.517,2.07,4.134,4.134,0,0,1-.517,2.07A3.719,3.719,0,0,1,14.537-.443,4.094,4.094,0,0,1,12.484.075Zm0-.945a2.972,2.972,0,0,0,1.506-.383A2.666,2.666,0,0,0,15.031-2.34a3.367,3.367,0,0,0,.375-1.605,3.367,3.367,0,0,0-.375-1.605A2.666,2.666,0,0,0,13.99-6.638a2.972,2.972,0,0,0-1.506-.383,2.972,2.972,0,0,0-1.506.383A2.715,2.715,0,0,0,9.928-5.55a3.314,3.314,0,0,0-.382,1.605A3.314,3.314,0,0,0,9.928-2.34a2.715,2.715,0,0,0,1.049,1.088A2.972,2.972,0,0,0,12.484-.87ZM25.761-7.89V0H24.742V-1.44A2.92,2.92,0,0,1,23.588-.323a3.469,3.469,0,0,1-1.678.4,3.355,3.355,0,0,1-2.435-.863,3.359,3.359,0,0,1-.892-2.528V-7.89h1.064v4.47a2.64,2.64,0,0,0,.614,1.89,2.307,2.307,0,0,0,1.753.645,2.578,2.578,0,0,0,1.963-.757A2.938,2.938,0,0,0,24.7-3.75V-7.89ZM32.011.075a4.245,4.245,0,0,1-2.091-.51,3.69,3.69,0,0,1-1.446-1.433,4.128,4.128,0,0,1-.525-2.078,4.087,4.087,0,0,1,.525-2.07A3.7,3.7,0,0,1,29.92-7.44a4.245,4.245,0,0,1,2.091-.51,4.045,4.045,0,0,1,1.821.4A3.025,3.025,0,0,1,35.1-6.39l-.794.54a2.486,2.486,0,0,0-.989-.877,2.933,2.933,0,0,0-1.3-.293,3.085,3.085,0,0,0-1.536.383A2.687,2.687,0,0,0,29.41-5.55a3.314,3.314,0,0,0-.382,1.605,3.3,3.3,0,0,0,.382,1.612,2.7,2.7,0,0,0,1.064,1.08,3.085,3.085,0,0,0,1.536.383,3,3,0,0,0,1.3-.285,2.43,2.43,0,0,0,.989-.87l.794.54A3.015,3.015,0,0,1,33.824-.323,4.058,4.058,0,0,1,32.011.075ZM41.077-7.95a3.219,3.219,0,0,1,2.36.862,3.371,3.371,0,0,1,.877,2.513V0H43.25V-4.47a2.617,2.617,0,0,0-.614-1.875,2.307,2.307,0,0,0-1.753-.645,2.692,2.692,0,0,0-2.016.758,2.863,2.863,0,0,0-.742,2.092V0H37.061V-11.13h1.064v4.62a2.886,2.886,0,0,1,1.2-1.065A3.931,3.931,0,0,1,41.077-7.95Zm6.129.06h1.064V0H47.207Zm.54-1.725a.753.753,0,0,1-.554-.225.737.737,0,0,1-.225-.54.72.72,0,0,1,.225-.525.753.753,0,0,1,.554-.225.767.767,0,0,1,.554.218.7.7,0,0,1,.225.517.754.754,0,0,1-.225.555A.753.753,0,0,1,47.746-9.615ZM55.254-7.95a3.219,3.219,0,0,1,2.36.862,3.371,3.371,0,0,1,.877,2.513V0H57.427V-4.47a2.617,2.617,0,0,0-.614-1.875,2.307,2.307,0,0,0-1.753-.645,2.692,2.692,0,0,0-2.016.758A2.863,2.863,0,0,0,52.3-4.14V0H51.238V-7.89h1.019v1.455a2.961,2.961,0,0,1,1.206-1.118A3.858,3.858,0,0,1,55.254-7.95Zm13.458.06V-.96a4.019,4.019,0,0,1-.982,2.978,4.058,4.058,0,0,1-2.96.967,6.607,6.607,0,0,1-2.076-.322,4.267,4.267,0,0,1-1.6-.893l.54-.81a4.048,4.048,0,0,0,1.386.8,5.171,5.171,0,0,0,1.716.285,3.026,3.026,0,0,0,2.2-.7,2.938,2.938,0,0,0,.7-2.168V-1.83a3.208,3.208,0,0,1-1.3,1.14,4.005,4.005,0,0,1-1.776.39A4.188,4.188,0,0,1,62.56-.788a3.6,3.6,0,0,1-1.424-1.365,3.841,3.841,0,0,1-.517-1.988,3.8,3.8,0,0,1,.517-1.98,3.574,3.574,0,0,1,1.416-1.35,4.228,4.228,0,0,1,2.023-.48,4,4,0,0,1,1.813.405,3.269,3.269,0,0,1,1.3,1.17V-7.89ZM64.68-1.245a3.229,3.229,0,0,0,1.544-.367A2.653,2.653,0,0,0,67.3-2.64a2.939,2.939,0,0,0,.382-1.5A2.9,2.9,0,0,0,67.3-5.633a2.681,2.681,0,0,0-1.064-1.02A3.217,3.217,0,0,0,64.68-7.02a3.239,3.239,0,0,0-1.536.36A2.615,2.615,0,0,0,62.08-5.64a2.938,2.938,0,0,0-.382,1.5,2.938,2.938,0,0,0,.382,1.5,2.666,2.666,0,0,0,1.064,1.028A3.185,3.185,0,0,0,64.68-1.245ZM79.772-.48a2.014,2.014,0,0,1-.742.413,2.986,2.986,0,0,1-.922.143,2.31,2.31,0,0,1-1.708-.6,2.293,2.293,0,0,1-.6-1.7V-6.99H74.391v-.9H75.8V-9.615h1.064V-7.89h2.4v.9h-2.4v4.71a1.492,1.492,0,0,0,.352,1.073,1.336,1.336,0,0,0,1.012.368,1.956,1.956,0,0,0,.637-.1,1.583,1.583,0,0,0,.532-.3Zm5.95-7.47a3.219,3.219,0,0,1,2.36.862,3.371,3.371,0,0,1,.877,2.513V0H87.894V-4.47a2.617,2.617,0,0,0-.614-1.875,2.307,2.307,0,0,0-1.753-.645,2.692,2.692,0,0,0-2.016.758,2.863,2.863,0,0,0-.742,2.092V0H81.7V-11.13h1.064v4.62a2.886,2.886,0,0,1,1.2-1.065A3.931,3.931,0,0,1,85.721-7.95ZM98.744-3.615H92.15a2.821,2.821,0,0,0,.944,1.988,3.132,3.132,0,0,0,2.158.758A3.4,3.4,0,0,0,96.6-1.133a2.946,2.946,0,0,0,1.064-.773l.6.69a3.376,3.376,0,0,1-1.311.96,4.431,4.431,0,0,1-1.731.33,4.373,4.373,0,0,1-2.151-.518,3.729,3.729,0,0,1-1.461-1.432,4.087,4.087,0,0,1-.525-2.07,4.232,4.232,0,0,1,.5-2.07A3.637,3.637,0,0,1,92.967-7.44a3.847,3.847,0,0,1,1.971-.51,3.806,3.806,0,0,1,1.963.51,3.614,3.614,0,0,1,1.364,1.418,4.271,4.271,0,0,1,.495,2.077Zm-3.806-3.42a2.679,2.679,0,0,0-1.911.727,2.858,2.858,0,0,0-.877,1.9h5.59a2.858,2.858,0,0,0-.877-1.9A2.7,2.7,0,0,0,94.938-7.035Zm12.678-.915a3.335,3.335,0,0,1,2.368.773,2.987,2.987,0,0,1,.824,2.288V0h-1.019V-1.23a2.441,2.441,0,0,1-1.057.96,3.7,3.7,0,0,1-1.656.345,3.241,3.241,0,0,1-2.1-.63A2.035,2.035,0,0,1,104.2-2.22a2.018,2.018,0,0,1,.727-1.62,3.555,3.555,0,0,1,2.315-.615h2.5v-.48a2.023,2.023,0,0,0-.569-1.553,2.35,2.35,0,0,0-1.663-.532,4.225,4.225,0,0,0-1.439.247,3.625,3.625,0,0,0-1.184.683l-.48-.8a4.251,4.251,0,0,1,1.439-.787A5.6,5.6,0,0,1,107.616-7.95Zm-.375,7.185a2.8,2.8,0,0,0,1.544-.412,2.463,2.463,0,0,0,.959-1.193V-3.66h-2.473q-2.023,0-2.023,1.41a1.291,1.291,0,0,0,.525,1.087A2.386,2.386,0,0,0,107.241-.765ZM117.717-7.95a3.219,3.219,0,0,1,2.36.862,3.371,3.371,0,0,1,.877,2.513V0H119.89V-4.47a2.617,2.617,0,0,0-.614-1.875,2.307,2.307,0,0,0-1.753-.645,2.692,2.692,0,0,0-2.016.758,2.863,2.863,0,0,0-.742,2.092V0H113.7V-7.89h1.019v1.455a2.961,2.961,0,0,1,1.206-1.118A3.858,3.858,0,0,1,117.717-7.95ZM127.143.075a4.245,4.245,0,0,1-2.091-.51,3.69,3.69,0,0,1-1.446-1.433,4.128,4.128,0,0,1-.525-2.078,4.087,4.087,0,0,1,.525-2.07,3.7,3.7,0,0,1,1.446-1.425,4.245,4.245,0,0,1,2.091-.51,4.045,4.045,0,0,1,1.821.4A3.025,3.025,0,0,1,130.23-6.39l-.794.54a2.486,2.486,0,0,0-.989-.877,2.933,2.933,0,0,0-1.3-.293,3.085,3.085,0,0,0-1.536.383,2.687,2.687,0,0,0-1.064,1.088,3.314,3.314,0,0,0-.382,1.605,3.3,3.3,0,0,0,.382,1.612,2.7,2.7,0,0,0,1.064,1.08,3.085,3.085,0,0,0,1.536.383,3,3,0,0,0,1.3-.285,2.43,2.43,0,0,0,.989-.87l.794.54a3.015,3.015,0,0,1-1.274,1.163A4.058,4.058,0,0,1,127.143.075Zm5.17-7.965h1.064V0h-1.064Zm.539-1.725a.753.753,0,0,1-.554-.225.737.737,0,0,1-.225-.54.72.72,0,0,1,.225-.525.753.753,0,0,1,.554-.225.767.767,0,0,1,.555.218.7.7,0,0,1,.225.517.754.754,0,0,1-.225.555A.753.753,0,0,1,132.853-9.615Zm10.355,6h-6.594a2.821,2.821,0,0,0,.944,1.988,3.132,3.132,0,0,0,2.158.758,3.4,3.4,0,0,0,1.349-.263,2.947,2.947,0,0,0,1.064-.773l.6.69a3.376,3.376,0,0,1-1.311.96,4.431,4.431,0,0,1-1.731.33,4.373,4.373,0,0,1-2.151-.518,3.729,3.729,0,0,1-1.461-1.432,4.087,4.087,0,0,1-.525-2.07,4.231,4.231,0,0,1,.5-2.07,3.637,3.637,0,0,1,1.379-1.425,3.847,3.847,0,0,1,1.971-.51,3.806,3.806,0,0,1,1.963.51,3.614,3.614,0,0,1,1.364,1.418,4.271,4.271,0,0,1,.495,2.077ZM139.4-7.035a2.679,2.679,0,0,0-1.911.727,2.858,2.858,0,0,0-.877,1.9h5.59a2.858,2.858,0,0,0-.877-1.9A2.7,2.7,0,0,0,139.4-7.035Zm10.011-.915a3.219,3.219,0,0,1,2.36.862,3.371,3.371,0,0,1,.877,2.513V0h-1.064V-4.47a2.617,2.617,0,0,0-.614-1.875,2.307,2.307,0,0,0-1.753-.645,2.692,2.692,0,0,0-2.016.758,2.862,2.862,0,0,0-.742,2.092V0H145.4V-7.89h1.019v1.455a2.961,2.961,0,0,1,1.206-1.118A3.858,3.858,0,0,1,149.412-7.95ZM159.693-.48a2.014,2.014,0,0,1-.742.413,2.986,2.986,0,0,1-.922.143,2.31,2.31,0,0,1-1.708-.6,2.293,2.293,0,0,1-.6-1.7V-6.99h-1.409v-.9h1.409V-9.615h1.064V-7.89h2.4v.9h-2.4v4.71a1.492,1.492,0,0,0,.352,1.073,1.336,1.336,0,0,0,1.012.368,1.956,1.956,0,0,0,.637-.1,1.583,1.583,0,0,0,.532-.3Zm9.127.555a4.245,4.245,0,0,1-2.091-.51,3.69,3.69,0,0,1-1.446-1.433,4.128,4.128,0,0,1-.525-2.078,4.087,4.087,0,0,1,.525-2.07,3.7,3.7,0,0,1,1.446-1.425,4.245,4.245,0,0,1,2.091-.51,4.045,4.045,0,0,1,1.821.4,3.025,3.025,0,0,1,1.266,1.163l-.794.54a2.486,2.486,0,0,0-.989-.877,2.933,2.933,0,0,0-1.3-.293,3.085,3.085,0,0,0-1.536.383,2.687,2.687,0,0,0-1.064,1.088,3.314,3.314,0,0,0-.382,1.605,3.3,3.3,0,0,0,.382,1.612,2.7,2.7,0,0,0,1.064,1.08,3.085,3.085,0,0,0,1.536.383,3,3,0,0,0,1.3-.285,2.429,2.429,0,0,0,.989-.87l.794.54a3.014,3.014,0,0,1-1.274,1.163A4.058,4.058,0,0,1,168.819.075ZM181.093-7.89V0h-1.019V-1.44A2.92,2.92,0,0,1,178.92-.323a3.47,3.47,0,0,1-1.678.4,3.355,3.355,0,0,1-2.435-.863,3.359,3.359,0,0,1-.892-2.528V-7.89h1.064v4.47a2.64,2.64,0,0,0,.614,1.89,2.307,2.307,0,0,0,1.753.645,2.578,2.578,0,0,0,1.963-.757,2.938,2.938,0,0,0,.719-2.107V-7.89Zm2.982-3.24h1.064V0h-1.064ZM192.288-.48a2.014,2.014,0,0,1-.742.413,2.986,2.986,0,0,1-.922.143,2.31,2.31,0,0,1-1.708-.6,2.293,2.293,0,0,1-.6-1.7V-6.99h-1.409v-.9h1.409V-9.615h1.064V-7.89h2.4v.9h-2.4v4.71a1.492,1.492,0,0,0,.352,1.073,1.336,1.336,0,0,0,1.012.368,1.956,1.956,0,0,0,.637-.1,1.583,1.583,0,0,0,.532-.3Zm9.037-7.41V0h-1.019V-1.44a2.92,2.92,0,0,1-1.154,1.118,3.47,3.47,0,0,1-1.678.4,3.355,3.355,0,0,1-2.435-.863,3.359,3.359,0,0,1-.892-2.528V-7.89h1.064v4.47a2.64,2.64,0,0,0,.614,1.89,2.307,2.307,0,0,0,1.753.645,2.578,2.578,0,0,0,1.963-.757,2.938,2.938,0,0,0,.719-2.107V-7.89Zm4,1.545a2.58,2.58,0,0,1,1.116-1.2,3.791,3.791,0,0,1,1.836-.405v1.035l-.255-.015a2.516,2.516,0,0,0-1.948.765,3.05,3.05,0,0,0-.7,2.145V0h-1.064V-7.89h1.019Zm11.659,2.73h-6.594a2.821,2.821,0,0,0,.944,1.988,3.132,3.132,0,0,0,2.158.758,3.4,3.4,0,0,0,1.349-.263,2.947,2.947,0,0,0,1.064-.773l.6.69a3.376,3.376,0,0,1-1.311.96,4.431,4.431,0,0,1-1.731.33,4.373,4.373,0,0,1-2.151-.518,3.729,3.729,0,0,1-1.461-1.432,4.087,4.087,0,0,1-.525-2.07,4.231,4.231,0,0,1,.5-2.07,3.637,3.637,0,0,1,1.379-1.425,3.847,3.847,0,0,1,1.971-.51,3.806,3.806,0,0,1,1.963.51,3.614,3.614,0,0,1,1.364,1.418A4.271,4.271,0,0,1,217-3.945Zm-3.806-3.42a2.679,2.679,0,0,0-1.911.727,2.858,2.858,0,0,0-.877,1.9h5.59a2.859,2.859,0,0,0-.877-1.9A2.7,2.7,0,0,0,213.179-7.035Z" transform="translate(381 98.015)"/></g></svg>