<svg xmlns="http://www.w3.org/2000/svg" width="144" height="50" viewBox="0 0 144 50"><defs><style>.a{fill:#fff;}</style></defs><g transform="translate(-381 -26)"><path class="a" d="M30.8,5.767q.172,0,.172.341T30.8,6.45c-.879,0-2.812-.019-3.309-.057L24.4,6.336l-3.152.057c-.5.038-2.43.057-3.309.057q-.172,0-.172-.341t.172-.341a16.35,16.35,0,0,0,3.538-.313,1.716,1.716,0,0,0,1-1.109,8.822,8.822,0,0,0,.258-2.5V-7.375a7.807,7.807,0,0,0-1.289-4.95,4.82,4.82,0,0,0-3.983-1.593,11.167,11.167,0,0,0-4.392.939,11.733,11.733,0,0,0-3.3,2.589V1.841a16.071,16.071,0,0,0,.258,2.5s.506.9,1,1.109a16.35,16.35,0,0,0,3.538.313q.172,0,.172.341t-.172.341c-.879,0-2.812-.019-3.309-.057L8.171,6.336l-3.152.057c-.5.038-2.43.057-3.309.057q-.172,0-.172-.341t.172-.341a16.35,16.35,0,0,0,3.538-.313,1.716,1.716,0,0,0,1-1.109,8.822,8.822,0,0,0,.258-2.5V-9.423a6.244,6.244,0,0,0-.458-2.788A1.614,1.614,0,0,0,4.5-13.064c-.611,0-4.134,2.758-5.586,3.327H-1.2a.32.32,0,0,1-.315-.256.271.271,0,0,1,.143-.37l9.139-5.6.344-.057q.516,0,1.089,1.308a8.425,8.425,0,0,1,.573,3.357,16.62,16.62,0,0,1,4.326-3.7,12.267,12.267,0,0,1,5.252-1.195,6.57,6.57,0,0,1,4.928,1.764A7.128,7.128,0,0,1,26-9.309V1.841a8.822,8.822,0,0,0,.258,2.5,1.716,1.716,0,0,0,1,1.109A16.35,16.35,0,0,0,30.8,5.767ZM57.463,2.141a.279.279,0,0,1,.287.256.3.3,0,0,1-.172.37L50.429,6.791a1.023,1.023,0,0,1-.458.114q-.745,0-1.318-1a6.825,6.825,0,0,1-.745-2.7c-5.556,2.541-6.4,2.977-7.122,3.243a6.62,6.62,0,0,1-2.292.4A4.611,4.611,0,0,1,35.2,5.738a3.706,3.706,0,0,1-1.175-2.816A3.876,3.876,0,0,1,35.4-.036a13.9,13.9,0,0,1,4.527-2.389L47.85-4.758V-8.627Q47.85-15,44.24-15c-1.3,0-3.093.427-3.762,1.28a12.4,12.4,0,0,0-2.157,3.735,4.066,4.066,0,0,1-.63,1.678,1.756,1.756,0,0,1-1.547.654,1.846,1.846,0,0,1-1.4-.512,1.679,1.679,0,0,1-.487-1.195c0-.91,1.4-2.625,2.587-3.536a16.011,16.011,0,0,1,4.241-2.276,17.423,17.423,0,0,1,5.223-.91A4.311,4.311,0,0,1,49.856-14.6a6.615,6.615,0,0,1,1.2,4.267V.305a11.136,11.136,0,0,0,.516,2.9,3.19,3.19,0,0,0,1.719.91c.726,0,2.908-1.483,4.054-1.976Zm-9.612.27V-3.961L40.9-1.913A5.856,5.856,0,0,0,38.579-.463,2.9,2.9,0,0,0,37.863,1.5a3.226,3.226,0,0,0,.888,2.3,3.049,3.049,0,0,0,2.321.939C41.836,4.743,42.753,4.439,47.85,2.41ZM74.636-16.827a4.633,4.633,0,0,1,2.407.683,1.949,1.949,0,0,1,1.146,1.65,1.748,1.748,0,0,1-.487,1.252,1.846,1.846,0,0,1-1.4.512,1.859,1.859,0,0,1-.888-.2,6.65,6.65,0,0,1-.888-.6,4.6,4.6,0,0,0-.974-.683,2.424,2.424,0,0,0-1.089-.228,2.662,2.662,0,0,0-1.576.626,29.517,29.517,0,0,0-4.228,3.479V1.841a5.513,5.513,0,0,0,.43,2.5A2.387,2.387,0,0,0,68.66,5.454a28.891,28.891,0,0,0,4.8.313q.229,0,.229.341t-.229.341c-1.222,0-3.442-.019-4.168-.057L65.05,6.336,61.9,6.393c-.5.038-2.43.057-3.309.057q-.172,0-.172-.341t.172-.341a16.35,16.35,0,0,0,3.538-.313,1.716,1.716,0,0,0,1-1.109,8.822,8.822,0,0,0,.258-2.5V-9.423a6.244,6.244,0,0,0-.458-2.788,1.614,1.614,0,0,0-1.547-.853c-.611,0-4.134,2.758-5.586,3.327h-.115a.32.32,0,0,1-.315-.256.271.271,0,0,1,.143-.37l9.139-5.6.344-.057q.516,0,1.089,1.308a8.425,8.425,0,0,1,.573,3.357v.057A34.855,34.855,0,0,1,72-15.832,4.539,4.539,0,0,1,74.636-16.827Zm12.913-3.81a2.6,2.6,0,0,1-1.862-.626,2.316,2.316,0,0,1-.659-1.764,2.316,2.316,0,0,1,.659-1.764,2.6,2.6,0,0,1,1.862-.626,2.412,2.412,0,0,1,1.776.626,2.375,2.375,0,0,1,.63,1.764,2.375,2.375,0,0,1-.63,1.764A2.412,2.412,0,0,1,87.55-20.637ZM81.528,6.45q-.115,0-.115-.341t.115-.341a16.763,16.763,0,0,0,3.567-.313,1.8,1.8,0,0,0,1.06-1.138,8.023,8.023,0,0,0,.287-2.475V-8.8a7.426,7.426,0,0,0-.43-2.958,1.5,1.5,0,0,0-1.461-.91c-.688,0-4.039,2.739-5.07,3.27h-.057q-.229,0-.344-.284t.057-.4l9.941-5.887.229-.057a.5.5,0,0,1,.287.142.406.406,0,0,1,.172.313q0,.4-.057,2.276T89.65-8.854v10.7a7.983,7.983,0,0,0,.287,2.5,1.808,1.808,0,0,0,1.031,1.109,16.35,16.35,0,0,0,3.538.313q.172,0,.172.341t-.172.341c-.879,0-2.831-.019-3.366-.057l-3.094-.057-3.094.057C84.416,6.431,82.445,6.45,81.528,6.45Zm45.085-.683q.172,0,.172.341t-.172.341c-.879,0-2.812-.019-3.309-.057l-3.094-.057-3.152.057c-.5.038-2.43.057-3.309.057q-.172,0-.172-.341t.172-.341a16.35,16.35,0,0,0,3.538-.313,1.716,1.716,0,0,0,1-1.109,8.823,8.823,0,0,0,.258-2.5V-7.375a7.808,7.808,0,0,0-1.289-4.95,4.821,4.821,0,0,0-3.983-1.593,11.166,11.166,0,0,0-4.392.939,11.733,11.733,0,0,0-3.3,2.589V1.841a8.822,8.822,0,0,0,.258,2.5,1.716,1.716,0,0,0,1,1.109,16.35,16.35,0,0,0,3.538.313q.172,0,.172.341t-.172.341c-.879,0-2.812-.019-3.309-.057l-3.094-.057-3.152.057c-.5.038-2.43.057-3.309.057q-.172,0-.172-.341t.172-.341a16.35,16.35,0,0,0,3.538-.313,1.716,1.716,0,0,0,1-1.109,8.822,8.822,0,0,0,.258-2.5V-9.423a6.245,6.245,0,0,0-.458-2.788,1.614,1.614,0,0,0-1.547-.853c-.611,0-4.134,2.758-5.586,3.327h-.115a.321.321,0,0,1-.315-.256.271.271,0,0,1,.143-.37l9.139-5.6.344-.057q.516,0,1.089,1.308a8.426,8.426,0,0,1,.573,3.357,16.621,16.621,0,0,1,4.326-3.7,12.267,12.267,0,0,1,5.252-1.195,6.57,6.57,0,0,1,4.928,1.764,7.128,7.128,0,0,1,1.719,5.177V1.841a8.822,8.822,0,0,0,.258,2.5,1.716,1.716,0,0,0,1,1.109A16.351,16.351,0,0,0,126.613,5.767Z" transform="translate(382.536 51.416)"/><path class="a" d="M2.506-10.08H.06v-.634H5.689v.634H3.242v6.3H2.506ZM8.3-3.731a2.727,2.727,0,0,1-1.362-.342,2.5,2.5,0,0,1-.955-.946,2.688,2.688,0,0,1-.348-1.367,2.688,2.688,0,0,1,.348-1.367,2.462,2.462,0,0,1,.955-.941A2.759,2.759,0,0,1,8.3-9.03a2.759,2.759,0,0,1,1.362.337,2.427,2.427,0,0,1,.95.941,2.719,2.719,0,0,1,.343,1.367,2.719,2.719,0,0,1-.343,1.367,2.462,2.462,0,0,1-.95.946A2.727,2.727,0,0,1,8.3-3.731Zm0-.624a1.98,1.98,0,0,0,1-.253,1.764,1.764,0,0,0,.691-.718,2.215,2.215,0,0,0,.249-1.06,2.215,2.215,0,0,0-.249-1.06A1.764,1.764,0,0,0,9.3-8.163a1.98,1.98,0,0,0-1-.253,1.98,1.98,0,0,0-1,.253,1.8,1.8,0,0,0-.7.718,2.179,2.179,0,0,0-.254,1.06,2.179,2.179,0,0,0,.254,1.06,1.8,1.8,0,0,0,.7.718A1.98,1.98,0,0,0,8.3-4.355Zm8.811-4.635v5.21h-.676v-.951a1.933,1.933,0,0,1-.766.738,2.312,2.312,0,0,1-1.114.262,2.233,2.233,0,0,1-1.616-.57,2.211,2.211,0,0,1-.592-1.669V-8.991h.706v2.952a1.738,1.738,0,0,0,.408,1.248,1.535,1.535,0,0,0,1.164.426,1.715,1.715,0,0,0,1.3-.5,1.934,1.934,0,0,0,.477-1.392V-8.991Zm4.147,5.259a2.828,2.828,0,0,1-1.387-.337,2.443,2.443,0,0,1-.96-.946,2.715,2.715,0,0,1-.348-1.372,2.688,2.688,0,0,1,.348-1.367,2.452,2.452,0,0,1,.96-.941,2.828,2.828,0,0,1,1.387-.337,2.7,2.7,0,0,1,1.208.262,2,2,0,0,1,.84.768l-.527.357a1.647,1.647,0,0,0-.656-.579,1.954,1.954,0,0,0-.865-.193,2.055,2.055,0,0,0-1.019.253,1.778,1.778,0,0,0-.706.718,2.179,2.179,0,0,0-.254,1.06,2.172,2.172,0,0,0,.254,1.065,1.786,1.786,0,0,0,.706.713,2.055,2.055,0,0,0,1.019.253,2,2,0,0,0,.865-.188,1.61,1.61,0,0,0,.656-.574l.527.357a2,2,0,0,1-.845.768A2.7,2.7,0,0,1,21.262-3.731Zm6.017-5.3a2.142,2.142,0,0,1,1.566.57A2.219,2.219,0,0,1,29.427-6.8v3.021h-.706V-6.732a1.723,1.723,0,0,0-.408-1.238A1.535,1.535,0,0,0,27.15-8.4a1.791,1.791,0,0,0-1.338.5,1.885,1.885,0,0,0-.492,1.382v2.734h-.706V-11.13h.706v3.051a1.912,1.912,0,0,1,.8-.7A2.62,2.62,0,0,1,27.279-9.03Zm4.067.04h.706v5.21h-.706ZM31.7-10.13a.5.5,0,0,1-.368-.149.485.485,0,0,1-.149-.357.474.474,0,0,1,.149-.347.5.5,0,0,1,.368-.149.51.51,0,0,1,.368.144.458.458,0,0,1,.149.342.5.5,0,0,1-.149.366A.5.5,0,0,1,31.7-10.13Zm4.982,1.1a2.142,2.142,0,0,1,1.566.57A2.219,2.219,0,0,1,38.835-6.8v3.021h-.706V-6.732a1.723,1.723,0,0,0-.408-1.238A1.535,1.535,0,0,0,36.557-8.4a1.791,1.791,0,0,0-1.338.5,1.885,1.885,0,0,0-.492,1.382v2.734h-.706v-5.21H34.7v.961a1.961,1.961,0,0,1,.8-.738A2.571,2.571,0,0,1,36.687-9.03Zm8.93.04v4.576a2.646,2.646,0,0,1-.651,1.966A2.7,2.7,0,0,1,43-1.809a4.4,4.4,0,0,1-1.377-.213,2.835,2.835,0,0,1-1.059-.589l.358-.535a2.69,2.69,0,0,0,.92.525,3.446,3.446,0,0,0,1.139.188,2.014,2.014,0,0,0,1.462-.461,1.934,1.934,0,0,0,.467-1.431v-.664a2.125,2.125,0,0,1-.86.753,2.669,2.669,0,0,1-1.178.258A2.79,2.79,0,0,1,41.535-4.3a2.382,2.382,0,0,1-.945-.9,2.527,2.527,0,0,1-.343-1.312,2.5,2.5,0,0,1,.343-1.307,2.367,2.367,0,0,1,.94-.891,2.817,2.817,0,0,1,1.343-.317,2.662,2.662,0,0,1,1.2.267,2.166,2.166,0,0,1,.865.773v-1ZM42.942-4.6a2.151,2.151,0,0,0,1.024-.243,1.757,1.757,0,0,0,.711-.678,1.933,1.933,0,0,0,.254-.99,1.906,1.906,0,0,0-.254-.986,1.775,1.775,0,0,0-.706-.674,2.143,2.143,0,0,0-1.029-.243,2.158,2.158,0,0,0-1.019.238,1.732,1.732,0,0,0-.706.674,1.933,1.933,0,0,0-.254.99,1.933,1.933,0,0,0,.254.99,1.765,1.765,0,0,0,.706.678A2.122,2.122,0,0,0,42.942-4.6ZM52.956-4.1a1.338,1.338,0,0,1-.492.272,1.99,1.99,0,0,1-.612.094,1.537,1.537,0,0,1-1.134-.4,1.51,1.51,0,0,1-.4-1.119V-8.4h-.935v-.594h.935V-10.13h.706v1.139h1.591V-8.4H51.027v3.11a.982.982,0,0,0,.234.708.889.889,0,0,0,.671.243,1.3,1.3,0,0,0,.423-.069,1.052,1.052,0,0,0,.353-.2ZM56.9-9.03a2.142,2.142,0,0,1,1.566.57A2.219,2.219,0,0,1,59.052-6.8v3.021h-.706V-6.732a1.723,1.723,0,0,0-.408-1.238A1.535,1.535,0,0,0,56.775-8.4a1.791,1.791,0,0,0-1.338.5,1.885,1.885,0,0,0-.492,1.382v2.734h-.706V-11.13h.706v3.051a1.912,1.912,0,0,1,.8-.7A2.62,2.62,0,0,1,56.9-9.03Zm8.642,2.863H61.171A1.859,1.859,0,0,0,61.8-4.855a2.085,2.085,0,0,0,1.432.5,2.264,2.264,0,0,0,.9-.173,1.955,1.955,0,0,0,.706-.51l.4.456a2.24,2.24,0,0,1-.87.634,2.953,2.953,0,0,1-1.149.218,2.913,2.913,0,0,1-1.427-.342,2.469,2.469,0,0,1-.97-.946,2.688,2.688,0,0,1-.348-1.367A2.783,2.783,0,0,1,60.8-7.752a2.407,2.407,0,0,1,.915-.941A2.562,2.562,0,0,1,63.02-9.03a2.536,2.536,0,0,1,1.3.337,2.392,2.392,0,0,1,.9.936,2.809,2.809,0,0,1,.328,1.372ZM63.02-8.426a1.783,1.783,0,0,0-1.268.48,1.884,1.884,0,0,0-.582,1.253H64.88A1.884,1.884,0,0,0,64.3-7.946,1.8,1.8,0,0,0,63.02-8.426Zm8.413-.6A2.22,2.22,0,0,1,73-8.52a1.967,1.967,0,0,1,.547,1.51v3.229h-.676v-.812a1.617,1.617,0,0,1-.7.634,2.462,2.462,0,0,1-1.1.228,2.158,2.158,0,0,1-1.392-.416,1.341,1.341,0,0,1-.517-1.1,1.33,1.33,0,0,1,.482-1.07,2.367,2.367,0,0,1,1.536-.406h1.661v-.317a1.332,1.332,0,0,0-.378-1.025,1.565,1.565,0,0,0-1.1-.352,2.816,2.816,0,0,0-.955.163,2.408,2.408,0,0,0-.786.451l-.318-.525a2.825,2.825,0,0,1,.955-.52A3.731,3.731,0,0,1,71.434-9.03Zm-.249,4.744a1.866,1.866,0,0,0,1.024-.272,1.628,1.628,0,0,0,.636-.787V-6.2H71.2q-1.343,0-1.343.931a.851.851,0,0,0,.348.718A1.589,1.589,0,0,0,71.185-4.286ZM78.136-9.03a2.142,2.142,0,0,1,1.566.57A2.219,2.219,0,0,1,80.284-6.8v3.021h-.706V-6.732a1.723,1.723,0,0,0-.408-1.238A1.535,1.535,0,0,0,78.007-8.4a1.791,1.791,0,0,0-1.338.5,1.885,1.885,0,0,0-.492,1.382v2.734h-.706v-5.21h.676v.961a1.961,1.961,0,0,1,.8-.738A2.571,2.571,0,0,1,78.136-9.03Zm6.255,5.3A2.828,2.828,0,0,1,83-4.068a2.443,2.443,0,0,1-.96-.946A2.715,2.715,0,0,1,81.7-6.386a2.688,2.688,0,0,1,.348-1.367A2.452,2.452,0,0,1,83-8.693a2.828,2.828,0,0,1,1.387-.337,2.7,2.7,0,0,1,1.208.262A2,2,0,0,1,86.44-8l-.527.357a1.647,1.647,0,0,0-.656-.579,1.954,1.954,0,0,0-.865-.193,2.055,2.055,0,0,0-1.019.253,1.778,1.778,0,0,0-.706.718,2.179,2.179,0,0,0-.254,1.06,2.172,2.172,0,0,0,.254,1.065,1.786,1.786,0,0,0,.706.713,2.055,2.055,0,0,0,1.019.253,2,2,0,0,0,.865-.188,1.61,1.61,0,0,0,.656-.574l.527.357a2,2,0,0,1-.845.768A2.7,2.7,0,0,1,84.392-3.731Zm3.431-5.259h.706v5.21h-.706Zm.358-1.139a.5.5,0,0,1-.368-.149.485.485,0,0,1-.149-.357.474.474,0,0,1,.149-.347.5.5,0,0,1,.368-.149.51.51,0,0,1,.368.144.458.458,0,0,1,.149.342.5.5,0,0,1-.149.366A.5.5,0,0,1,88.181-10.13Zm6.872,3.962H90.677A1.859,1.859,0,0,0,91.3-4.855a2.085,2.085,0,0,0,1.432.5,2.264,2.264,0,0,0,.9-.173,1.955,1.955,0,0,0,.706-.51l.4.456a2.239,2.239,0,0,1-.87.634,2.953,2.953,0,0,1-1.149.218,2.914,2.914,0,0,1-1.427-.342,2.469,2.469,0,0,1-.97-.946,2.688,2.688,0,0,1-.348-1.367A2.783,2.783,0,0,1,90.3-7.752a2.407,2.407,0,0,1,.915-.941,2.562,2.562,0,0,1,1.308-.337,2.536,2.536,0,0,1,1.3.337,2.392,2.392,0,0,1,.9.936,2.809,2.809,0,0,1,.328,1.372ZM92.526-8.426a1.783,1.783,0,0,0-1.268.48,1.884,1.884,0,0,0-.582,1.253h3.709A1.884,1.884,0,0,0,93.8-7.946,1.8,1.8,0,0,0,92.526-8.426Zm6.643-.6a2.142,2.142,0,0,1,1.566.57,2.219,2.219,0,0,1,.582,1.659v3.021h-.706V-6.732A1.723,1.723,0,0,0,100.2-7.97,1.535,1.535,0,0,0,99.04-8.4a1.791,1.791,0,0,0-1.338.5,1.885,1.885,0,0,0-.492,1.382v2.734H96.5v-5.21h.676v.961a1.961,1.961,0,0,1,.8-.738A2.571,2.571,0,0,1,99.169-9.03ZM105.992-4.1a1.339,1.339,0,0,1-.492.272,1.99,1.99,0,0,1-.612.094,1.537,1.537,0,0,1-1.134-.4,1.51,1.51,0,0,1-.4-1.119V-8.4h-.935v-.594h.935V-10.13h.706v1.139h1.591V-8.4h-1.591v3.11a.982.982,0,0,0,.234.708.889.889,0,0,0,.671.243,1.3,1.3,0,0,0,.423-.069,1.052,1.052,0,0,0,.353-.2Zm6.056.366a2.828,2.828,0,0,1-1.387-.337,2.443,2.443,0,0,1-.96-.946,2.715,2.715,0,0,1-.348-1.372,2.688,2.688,0,0,1,.348-1.367,2.452,2.452,0,0,1,.96-.941,2.828,2.828,0,0,1,1.387-.337,2.7,2.7,0,0,1,1.208.262A2,2,0,0,1,114.1-8l-.527.357a1.647,1.647,0,0,0-.656-.579,1.954,1.954,0,0,0-.865-.193,2.055,2.055,0,0,0-1.019.253,1.778,1.778,0,0,0-.706.718,2.18,2.18,0,0,0-.254,1.06,2.172,2.172,0,0,0,.254,1.065,1.786,1.786,0,0,0,.706.713,2.055,2.055,0,0,0,1.019.253,2,2,0,0,0,.865-.188,1.61,1.61,0,0,0,.656-.574l.527.357a2,2,0,0,1-.845.768A2.7,2.7,0,0,1,112.048-3.731Zm8.145-5.259v5.21h-.676v-.951a1.933,1.933,0,0,1-.766.738,2.312,2.312,0,0,1-1.114.262,2.233,2.233,0,0,1-1.616-.57,2.211,2.211,0,0,1-.592-1.669V-8.991h.706v2.952a1.738,1.738,0,0,0,.408,1.248,1.535,1.535,0,0,0,1.164.426,1.715,1.715,0,0,0,1.3-.5,1.934,1.934,0,0,0,.477-1.392V-8.991Zm1.979-2.139h.706v7.349h-.706Zm5.45,7.032a1.338,1.338,0,0,1-.492.272,1.99,1.99,0,0,1-.612.094,1.537,1.537,0,0,1-1.134-.4,1.51,1.51,0,0,1-.4-1.119V-8.4h-.935v-.594h.935V-10.13h.706v1.139h1.591V-8.4h-1.591v3.11a.982.982,0,0,0,.234.708.889.889,0,0,0,.671.243,1.3,1.3,0,0,0,.423-.069,1.052,1.052,0,0,0,.353-.2Zm6-4.893v5.21h-.676v-.951a1.933,1.933,0,0,1-.766.738,2.312,2.312,0,0,1-1.114.262,2.233,2.233,0,0,1-1.616-.57,2.211,2.211,0,0,1-.592-1.669V-8.991h.706v2.952a1.738,1.738,0,0,0,.408,1.248,1.535,1.535,0,0,0,1.164.426,1.715,1.715,0,0,0,1.3-.5,1.934,1.934,0,0,0,.477-1.392V-8.991Zm2.655,1.02a1.707,1.707,0,0,1,.741-.792,2.526,2.526,0,0,1,1.218-.267v.683l-.169-.01a1.674,1.674,0,0,0-1.293.505,2.007,2.007,0,0,0-.467,1.416v2.655H135.6v-5.21h.676Zm7.737,1.8h-4.376a1.859,1.859,0,0,0,.627,1.312,2.085,2.085,0,0,0,1.432.5,2.264,2.264,0,0,0,.9-.173,1.955,1.955,0,0,0,.706-.51l.4.456a2.24,2.24,0,0,1-.87.634,2.953,2.953,0,0,1-1.149.218,2.913,2.913,0,0,1-1.427-.342,2.469,2.469,0,0,1-.97-.946,2.688,2.688,0,0,1-.348-1.367,2.783,2.783,0,0,1,.333-1.367,2.407,2.407,0,0,1,.915-.941,2.562,2.562,0,0,1,1.308-.337,2.535,2.535,0,0,1,1.3.337,2.392,2.392,0,0,1,.9.936,2.809,2.809,0,0,1,.328,1.372Zm-2.526-2.258a1.783,1.783,0,0,0-1.268.48,1.884,1.884,0,0,0-.582,1.253h3.709a1.884,1.884,0,0,0-.582-1.253A1.8,1.8,0,0,0,141.484-8.426Z" transform="translate(380.98 77.809)"/></g></svg>